<svg width="70" height="50" viewBox="0 0 70 50" fill="none" xmlns="http://www.w3.org/2000/svg">
<g clip-path="url(#clip0_9140_21452)">
<rect width="70" height="50" rx="6.63158" fill="white"/>
<mask id="mask0_9140_21452" style="mask-type:alpha" maskUnits="userSpaceOnUse" x="0" y="0" width="70" height="50">
<rect width="70" height="50" rx="6.63158" fill="white"/>
</mask>
<g mask="url(#mask0_9140_21452)">
<path fill-rule="evenodd" clip-rule="evenodd" d="M23.089 23.4589H26.807C27.8557 23.4589 28.678 23.7667 29.2143 24.2881C29.6552 24.7381 29.9055 25.3543 29.9055 26.077V26.1009C29.9055 27.4632 29.0831 28.2808 27.9271 28.6125L30.1797 31.7523H28.4398L26.3899 28.8612H24.5546V31.7523H23.089V23.4589ZM26.6999 27.57C27.7484 27.57 28.4158 27.025 28.4158 26.184V26.1601C28.4158 25.2718 27.7722 24.7858 26.6879 24.7858H24.5548V27.57H26.6999ZM31.1998 27.6292V27.6058C31.1998 25.248 32.9756 23.3163 35.502 23.3163C37.0398 23.3163 37.9688 23.8498 38.7677 24.6079L37.8259 25.6861C37.159 25.0699 36.4436 24.6557 35.49 24.6557C33.9052 24.6557 32.7371 25.9586 32.7371 27.5819V27.6058C32.7371 29.2287 33.8937 30.5438 35.49 30.5438C36.515 30.5438 37.1705 30.1413 37.8859 29.4778L38.8269 30.4257C37.9568 31.3259 37.0038 31.8944 35.4424 31.8944C33.0114 31.8944 31.1998 30.0109 31.1998 27.6292ZM40.1264 23.4589H43.868C44.8215 23.4589 45.5724 23.7197 46.0492 24.1935C46.4184 24.5606 46.6089 25.0106 46.6089 25.5678V25.5912C46.6089 26.5863 46.0372 27.12 45.4174 27.4398C46.3944 27.7716 47.0738 28.3285 47.0738 29.4539V29.4778C47.0738 30.9584 45.8465 31.7523 43.9872 31.7523H40.1264V23.4589ZM45.1436 25.8049C45.1436 25.1534 44.619 24.75 43.6771 24.75H41.5678V26.9538H43.5704C44.5118 26.9538 45.1436 26.5863 45.1436 25.8284V25.8049ZM43.8921 28.1862H41.5678V30.4611H43.9992C45.0002 30.4611 45.608 30.0701 45.608 29.3237V29.2999C45.608 28.601 45.048 28.1862 43.8918 28.1862H43.8921ZM48.3728 27.6292V27.6058C48.3728 25.248 50.1488 23.3163 52.6751 23.3163C54.2125 23.3163 55.1424 23.8498 55.9404 24.6079L54.9994 25.6861C54.3321 25.0699 53.6168 24.6557 52.6631 24.6557C51.0784 24.6557 49.9102 25.9586 49.9102 27.5819V27.6058C49.9102 29.2287 51.0664 30.5438 52.6631 30.5438C53.6883 30.5438 54.3437 30.1413 55.059 29.4778L56 30.4257C55.1306 31.3259 54.1769 31.8944 52.6158 31.8944C50.1848 31.8944 48.3728 30.0109 48.3728 27.6292ZM29.1255 42.7308L14 34.0491V16.686L29.1324 8L44.2508 17.0411V22.8131H42.9547V17.7697L29.1188 9.49565L15.296 17.4299V33.3053L29.1255 41.2433L42.9547 33.3053V32.3979H44.2508V34.0491L29.1255 42.7308Z" fill="#3783D9"/>
</g>
</g>
<rect x="0.5" y="0.5" width="69" height="49" rx="2.5" stroke="#E6E7E8"/>
<defs>
<clipPath id="clip0_9140_21452">
<rect width="70" height="50" rx="3" fill="white"/>
</clipPath>
</defs>
</svg>
