<svg width="66" height="46" viewBox="0 0 66 46" fill="none" xmlns="http://www.w3.org/2000/svg">
<path d="M0.5 3C0.5 1.61929 1.61929 0.5 3 0.5H63C64.3807 0.5 65.5 1.61929 65.5 3V43C65.5 44.3807 64.3807 45.5 63 45.5H3C1.61929 45.5 0.5 44.3807 0.5 43V3Z" fill="white" stroke="#E6E7E8"/>
<path d="M32.6374 16.249L29.7175 29.8855H26.1864L29.1075 16.249H32.6374ZM47.4941 25.0536L49.3527 19.9336L50.4223 25.0536H47.4941ZM51.4341 29.8855H54.7L51.8492 16.249H48.8348C48.157 16.249 47.5854 16.6431 47.3321 17.2494L42.0332 29.8855H45.741L46.4774 27.8485H51.0078L51.4341 29.8855ZM42.2175 25.4332C42.2326 21.8342 37.2357 21.6359 37.2701 20.0282C37.2808 19.5389 37.7472 19.0187 38.7679 18.8858C39.2739 18.8196 40.668 18.769 42.2491 19.4961L42.8693 16.6045C42.0198 16.2965 40.9266 15.9999 39.5663 15.9999C36.076 15.9999 33.6198 17.8535 33.599 20.5076C33.5765 22.4707 35.3523 23.5661 36.69 24.2185C38.0663 24.8866 38.528 25.3158 38.5229 25.9134C38.513 26.8282 37.4252 27.232 36.4085 27.2478C34.6337 27.275 33.6038 26.768 32.7826 26.3867L32.1427 29.3741C32.9677 29.7523 34.4906 30.0821 36.0696 30.0986C39.7795 30.0986 42.2061 28.2681 42.2175 25.4332ZM27.592 16.249L21.8708 29.8855H18.1381L15.3227 19.0029C15.1517 18.3325 15.0032 18.0871 14.4834 17.8048C13.6347 17.3447 12.233 16.9133 11 16.6453L11.0838 16.249H17.0924C17.8583 16.249 18.5467 16.7583 18.7206 17.6395L20.2075 25.5303L23.8825 16.249H27.592Z" fill="#1434CB"/>
</svg>
